<svg id="Layer_1" data-name="Layer 1" xmlns="http://www.w3.org/2000/svg" xmlns:xlink="http://www.w3.org/1999/xlink" viewBox="0 0 1024 1024"><defs><style>.cls-1{fill:none;}.cls-2{fill:#fff;}.cls-3{fill:#fff4dc;}.cls-4{fill:#286754;}.cls-5{fill:#174435;}.cls-6{fill:#6da13e;}.cls-7{fill:#4f8c47;}.cls-8{fill:#fac042;}.cls-9{fill:#f6a633;}.cls-10{clip-path:url(#clip-path);}.cls-11{fill:#bc6f13;}.cls-12{fill:#f6a732;}.cls-13{fill:#e08f24;}.cls-14{fill:#f1effd;}.cls-15{fill:#eae6fd;}.cls-16{fill:#fbda67;}.cls-17{fill:#e29229;}.cls-18{fill:#9dc034;}</style><clipPath id="clip-path" transform="translate(0 0)"><path class="cls-1" d="M710.58,359.93c-17,7.64-47.59,14-86.51,18.24l-32.45-55.55,3.93-58.95,82.53-59,86.46-7.86,72.71,43.23L851,316.72,829.39,346.2,770.44,466.06,668.26,430.69C617.22,484.5,691.53,392.68,710.58,359.93Z"/></clipPath></defs><rect class="cls-2" width="1024" height="1024"/><rect y="982.23" width="1024" height="41.76"/><path class="cls-3" d="M318.17,990.58h4.31a12.89,12.89,0,0,1,8.38,2.68,9.21,9.21,0,0,1,3.31,7.63c0,3.41-1.09,6-3.29,7.82a12.88,12.88,0,0,1-8.48,2.71h-4.23Zm2.6,18.47h.91a18,18,0,0,0,3.82-.4,8.61,8.61,0,0,0,3.13-1.36,6.83,6.83,0,0,0,2.14-2.49,8.05,8.05,0,0,0,.8-3.79,8.6,8.6,0,0,0-.78-3.83,6,6,0,0,0-2.2-2.48,10.16,10.16,0,0,0-3.11-1.33,16.39,16.39,0,0,0-3.8-.41h-.91Z" transform="translate(0 0)"/><path class="cls-3" d="M338,1005.37a4.79,4.79,0,0,0,1.1,3,3.49,3.49,0,0,0,2.79,1.28,3.7,3.7,0,0,0,2.23-.63,6.14,6.14,0,0,0,1.64-1.89l2.11,1.19a6.89,6.89,0,0,1-2.51,2.6,6.78,6.78,0,0,1-3.49.93,5.94,5.94,0,0,1-4.65-1.93,7.13,7.13,0,0,1-1.71-4.87,7.58,7.58,0,0,1,1.63-5,5.73,5.73,0,0,1,4.67-1.94,5.4,5.4,0,0,1,4.51,1.94,7.64,7.64,0,0,1,1.55,4.94v.39Zm7.38-1.88a3.92,3.92,0,0,0-1.15-2.36,3.41,3.41,0,0,0-2.42-.87,3.89,3.89,0,0,0-1.34.23,3.6,3.6,0,0,0-1.91,1.72,4.3,4.3,0,0,0-.43,1.28Z" transform="translate(0 0)"/><path class="cls-3" d="M355.18,1001.45a1.77,1.77,0,0,0-1.66-1.14,1.41,1.41,0,0,0-.94.37,1.17,1.17,0,0,0-.41.9,1.2,1.2,0,0,0,.31.85,3.29,3.29,0,0,0,.87.65l.56.26.63.29a2.69,2.69,0,0,0,.39.16,1.17,1.17,0,0,1,.25.12,7.08,7.08,0,0,1,2.18,1.46,3,3,0,0,1,.8,2.21,4,4,0,0,1-1.32,3.07,4.42,4.42,0,0,1-3.13,1.21,5,5,0,0,1-1.44-.2,5.47,5.47,0,0,1-1.28-.58,4.59,4.59,0,0,1-1.05-.91,4.07,4.07,0,0,1-.7-1.21l2.12-1a2.7,2.7,0,0,0,2.35,1.66,2.06,2.06,0,0,0,1.81-1.12,1.51,1.51,0,0,0,.1-1,1.91,1.91,0,0,0-.86-1.07l-2.43-1.3a9.67,9.67,0,0,1-1.1-.66,3.61,3.61,0,0,1-.78-.71,2.8,2.8,0,0,1-.46-.83,3.68,3.68,0,0,1-.14-1.06,3.54,3.54,0,0,1,1.1-2.65,3.88,3.88,0,0,1,6.25,1.16Z" transform="translate(0 0)"/><path class="cls-3" d="M364.1,992.57a1.61,1.61,0,0,1-.49,1.19,1.68,1.68,0,0,1-1.22.5,1.65,1.65,0,0,1-1.21-.5,1.62,1.62,0,0,1-.5-1.19,1.74,1.74,0,0,1,.5-1.23,1.62,1.62,0,0,1,1.21-.51,1.65,1.65,0,0,1,1.22.51A1.73,1.73,0,0,1,364.1,992.57Zm-.47,18.85h-2.48V998.49h2.48Z" transform="translate(0 0)"/><path class="cls-3" d="M379.72,1011.17a9.94,9.94,0,0,1-1.38,5.67q-1.38,2-4.92,2a6.43,6.43,0,0,1-4.48-1.57,5.74,5.74,0,0,1-1.77-4.29h2.49a3.45,3.45,0,0,0,1.06,2.7,4.1,4.1,0,0,0,2.81,1,3.21,3.21,0,0,0,2.92-1.24,6.54,6.54,0,0,0,.78-3.52v-2.45h-.05a5.81,5.81,0,0,1-1.92,1.81,5,5,0,0,1-2.47.64,5.58,5.58,0,0,1-4.54-2,7.56,7.56,0,0,1-1.66-5,7,7,0,0,1,1.69-4.75,5.44,5.44,0,0,1,4.39-2,5.12,5.12,0,0,1,4.51,2.6h.05v-2.21h2.49Zm-6.55-1.51a3.76,3.76,0,0,0,3.07-1.36,5.09,5.09,0,0,0,1.14-3.34,4.93,4.93,0,0,0-1.14-3.29,3.73,3.73,0,0,0-3.07-1.36,3.69,3.69,0,0,0-3,1.38,5,5,0,0,0-1.11,3.27,5.05,5.05,0,0,0,1.11,3.31A3.64,3.64,0,0,0,373.17,1009.66Z" transform="translate(0 0)"/><path class="cls-3" d="M385.44,1000.23h.06a3.81,3.81,0,0,1,1.6-1.58,5,5,0,0,1,2.3-.55,5.33,5.33,0,0,1,2.15.39,3.41,3.41,0,0,1,1.42,1.1,4.65,4.65,0,0,1,.78,1.76,11.17,11.17,0,0,1,.23,2.36v7.71H391.5V1004a5.38,5.38,0,0,0-.56-2.79,2.46,2.46,0,0,0-2.29-.92,4.09,4.09,0,0,0-1.08.13,2.38,2.38,0,0,0-.77.36,2.22,2.22,0,0,0-.56.54,6.8,6.8,0,0,0-.41.66,2.14,2.14,0,0,0-.15.5c-.05.2-.09.41-.13.62s-.06.42-.08.63,0,.39,0,.51v7.16H383V998.49h2.48Z" transform="translate(0 0)"/><path class="cls-3" d="M405.2,987.44h2.49v13.2h.06a5.21,5.21,0,0,1,4.5-2.54,5.44,5.44,0,0,1,4.4,2,7.06,7.06,0,0,1,1.68,4.75,7.61,7.61,0,0,1-1.65,5,5.58,5.58,0,0,1-4.54,2,5,5,0,0,1-2.47-.64,5.62,5.62,0,0,1-1.92-1.81h-.06v2H405.2Zm6.44,22.22a3.73,3.73,0,0,0,3.07-1.36,5.09,5.09,0,0,0,1.14-3.34,4.93,4.93,0,0,0-1.14-3.29,4,4,0,0,0-6,0,5,5,0,0,0-1.11,3.27,5.05,5.05,0,0,0,1.11,3.31A3.66,3.66,0,0,0,411.64,1009.66Z" transform="translate(0 0)"/><path class="cls-3" d="M418.69,998.49h2.91l4.36,8.21,4.06-8.21h2.8l-10.48,20.34h-2.82l5.09-9.62Z" transform="translate(0 0)"/><path class="cls-3" d="M445.36,1006.2l-2.37,5.22H440.2l9.95-21.72,10,21.72h-2.79l-2.38-5.22Zm4.79-10.81-3.71,8.43h7.41Z" transform="translate(0 0)"/><path class="cls-3" d="M464.16,1011.42h-2.49v-24h2.49Z" transform="translate(0 0)"/><path class="cls-3" d="M470.29,1011.42h-2.48v-24h2.48Z" transform="translate(0 0)"/><path class="cls-3" d="M479.75,1001.53v2.07H473.7v-2.07Z" transform="translate(0 0)"/><path class="cls-3" d="M489.42,990a4.77,4.77,0,0,0-1.66-.52,1.31,1.31,0,0,0-1.16.5,3.12,3.12,0,0,0-.5,1.26q-.08.55-.09.87c0,.21,0,.51,0,.88v5.55h3.43v2.32H486v10.61h-2.48v-10.61h-1.14v-2.32h1.14v-6.3q0-5.09,4.17-5.09a4.65,4.65,0,0,1,1.74.34Z" transform="translate(0 0)"/><path class="cls-3" d="M493.26,1000.59h.08a4.17,4.17,0,0,1,1.39-1.83,3.54,3.54,0,0,1,2.15-.66,3.82,3.82,0,0,1,2.05.64L497.8,1001a2.27,2.27,0,0,0-1.52-.53,2.48,2.48,0,0,0-2.55,1.55,6.2,6.2,0,0,0-.37,1.42,11.11,11.11,0,0,0-.1,1.61v6.36h-2.48V998.49h2.48Z" transform="translate(0 0)"/><path class="cls-3" d="M501.8,1005.37a4.86,4.86,0,0,0,1.11,3,3.49,3.49,0,0,0,2.79,1.28,3.74,3.74,0,0,0,2.23-.63,6.27,6.27,0,0,0,1.64-1.89l2.1,1.19a6.71,6.71,0,0,1-6,3.53,5.94,5.94,0,0,1-4.64-1.93,7.13,7.13,0,0,1-1.71-4.87,7.58,7.58,0,0,1,1.63-5,5.7,5.7,0,0,1,4.67-1.94,5.37,5.37,0,0,1,4.5,1.94,7.64,7.64,0,0,1,1.55,4.94v.39Zm7.39-1.88a4,4,0,0,0-1.15-2.36,3.39,3.39,0,0,0-2.42-.87,3.89,3.89,0,0,0-1.34.23,3.61,3.61,0,0,0-1.11.68,3.75,3.75,0,0,0-.8,1,4,4,0,0,0-.43,1.28Z" transform="translate(0 0)"/><path class="cls-3" d="M515.29,1005.37a4.86,4.86,0,0,0,1.11,3,3.47,3.47,0,0,0,2.78,1.28,3.72,3.72,0,0,0,2.23-.63,6.14,6.14,0,0,0,1.64-1.89l2.11,1.19a6.94,6.94,0,0,1-2.5,2.6,6.84,6.84,0,0,1-3.5.93,5.91,5.91,0,0,1-4.64-1.93,7.09,7.09,0,0,1-1.72-4.87,7.58,7.58,0,0,1,1.64-5,5.69,5.69,0,0,1,4.66-1.94,5.4,5.4,0,0,1,4.51,1.94,7.64,7.64,0,0,1,1.55,4.94v.39Zm7.38-1.88a3.92,3.92,0,0,0-1.15-2.36,3.39,3.39,0,0,0-2.42-.87,3.93,3.93,0,0,0-1.34.23,3.62,3.62,0,0,0-1.9,1.72,3.8,3.8,0,0,0-.43,1.28Z" transform="translate(0 0)"/><path class="cls-3" d="M533.2,1001.53v2.07h-6.05v-2.07Z" transform="translate(0 0)"/><path class="cls-3" d="M546.11,1009.41h-.06a5.81,5.81,0,0,1-1.92,1.81,5,5,0,0,1-2.47.64,5.58,5.58,0,0,1-4.54-2,7.61,7.61,0,0,1-1.65-5,7.06,7.06,0,0,1,1.68-4.75,5.44,5.44,0,0,1,4.39-2,5.22,5.22,0,0,1,4.51,2.54h.06v-13.2h2.49v24h-2.49Zm-4.07.25a3.75,3.75,0,0,0,3.07-1.36,5.08,5.08,0,0,0,1.13-3.34,4.93,4.93,0,0,0-1.13-3.29,4,4,0,0,0-6.05,0A5,5,0,0,0,538,1005a5,5,0,0,0,1.1,3.31A3.64,3.64,0,0,0,542,1009.66Z" transform="translate(0 0)"/><path class="cls-3" d="M552.66,1000.09a6.71,6.71,0,0,1,4.92-2,6.88,6.88,0,1,1,0,13.76,6.74,6.74,0,0,1-4.92-2,7,7,0,0,1,0-9.79Zm.49,4.89a4.49,4.49,0,0,0,1.3,3.18,4.15,4.15,0,0,0,3.13,1.33,4.21,4.21,0,0,0,3.12-1.33A4.48,4.48,0,0,0,562,1005a4.4,4.4,0,0,0-1.29-3.17,4.21,4.21,0,0,0-3.12-1.33,4.15,4.15,0,0,0-3.13,1.33A4.41,4.41,0,0,0,553.15,1005Z" transform="translate(0 0)"/><path class="cls-3" d="M571.17,1006.73l3.82-9,3.79,9,3.75-8.24h2.82l-6.57,13.37-3.79-8.64-3.82,8.64-6.57-13.37h2.81Z" transform="translate(0 0)"/><path class="cls-3" d="M589.08,1000.23h.06a3.78,3.78,0,0,1,1.61-1.58,4.93,4.93,0,0,1,2.29-.55,5.38,5.38,0,0,1,2.16.39,3.44,3.44,0,0,1,1.41,1.1,4.5,4.5,0,0,1,.78,1.76,10.55,10.55,0,0,1,.23,2.36v7.71h-2.49V1004a5.39,5.39,0,0,0-.55-2.79,2.46,2.46,0,0,0-2.29-.92,4.14,4.14,0,0,0-1.08.13,2.38,2.38,0,0,0-.77.36,2.4,2.4,0,0,0-.56.54,6.8,6.8,0,0,0-.41.66,3.91,3.91,0,0,0-.15.5,6.18,6.18,0,0,0-.12.62q-.06.32-.09.63t0,.51v7.16H586.6V998.49h2.48Z" transform="translate(0 0)"/><path class="cls-3" d="M603.65,1011.42h-2.49v-24h2.49Z" transform="translate(0 0)"/><path class="cls-3" d="M608,1000.09a6.71,6.71,0,0,1,4.92-2,6.88,6.88,0,1,1,0,13.76,6.74,6.74,0,0,1-4.92-2,7,7,0,0,1,0-9.79Zm.5,4.89a4.52,4.52,0,0,0,1.29,3.18,4.34,4.34,0,0,0,6.25,0,4.53,4.53,0,0,0,1.3-3.18,4.46,4.46,0,0,0-1.3-3.17,4.34,4.34,0,0,0-6.25,0A4.45,4.45,0,0,0,608.52,1005Z" transform="translate(0 0)"/><path class="cls-3" d="M634.25,1011.42h-2.49v-2h0a5.11,5.11,0,0,1-4.4,2.45,5.63,5.63,0,0,1-4.54-2,7.61,7.61,0,0,1-1.65-5,7.06,7.06,0,0,1,1.68-4.75,5.49,5.49,0,0,1,4.43-2,5.22,5.22,0,0,1,4.48,2.54h0v-2.15h2.49Zm-6.55-1.76a3.74,3.74,0,0,0,3.06-1.36,5.09,5.09,0,0,0,1.14-3.34,4.93,4.93,0,0,0-1.14-3.29,4,4,0,0,0-6,0,5,5,0,0,0-1.1,3.27,5,5,0,0,0,1.1,3.31A3.65,3.65,0,0,0,627.7,1009.66Z" transform="translate(0 0)"/><path class="cls-3" d="M647.12,1009.41h0a5.71,5.71,0,0,1-1.92,1.81,5,5,0,0,1-2.47.64,5.54,5.54,0,0,1-4.53-2,7.56,7.56,0,0,1-1.66-5,7,7,0,0,1,1.69-4.75,5.42,5.42,0,0,1,4.38-2,5.22,5.22,0,0,1,4.51,2.54h0v-13.2h2.49v24h-2.49Zm-4,.25a3.75,3.75,0,0,0,3.06-1.36,5.08,5.08,0,0,0,1.13-3.34,4.93,4.93,0,0,0-1.13-3.29,4,4,0,0,0-6,0A5,5,0,0,0,639,1005a5.05,5.05,0,0,0,1.11,3.31A3.65,3.65,0,0,0,643.07,1009.66Z" transform="translate(0 0)"/><path class="cls-3" d="M656.75,1010.26a1.59,1.59,0,0,1-1.61,1.6,1.54,1.54,0,0,1-1.13-.46,1.57,1.57,0,0,1-.47-1.14,1.59,1.59,0,0,1,.47-1.12,1.52,1.52,0,0,1,1.13-.48,1.56,1.56,0,0,1,1.14.48A1.59,1.59,0,0,1,656.75,1010.26Z" transform="translate(0 0)"/><path class="cls-3" d="M670.35,1002.16a4.83,4.83,0,0,0-3.71-1.74,4.08,4.08,0,0,0-3.07,1.36,4.6,4.6,0,0,0-1.24,3.18,4.51,4.51,0,0,0,1.24,3.29,4.43,4.43,0,0,0,3.24,1.3,4.66,4.66,0,0,0,3.54-1.72V1011a7.5,7.5,0,0,1-3.57.85,6.79,6.79,0,0,1-4.92-2,6.41,6.41,0,0,1-2-4.84,6.69,6.69,0,0,1,2-5,6.89,6.89,0,0,1,5.06-2,6.62,6.62,0,0,1,3.43.86Z" transform="translate(0 0)"/><path class="cls-3" d="M673.86,1000.09a6.71,6.71,0,0,1,4.91-2,6.88,6.88,0,1,1,0,13.76,6.74,6.74,0,0,1-4.91-2,7,7,0,0,1,0-9.79Zm.49,4.89a4.49,4.49,0,0,0,1.3,3.18,4.14,4.14,0,0,0,3.12,1.33,4.21,4.21,0,0,0,3.13-1.33,4.53,4.53,0,0,0,1.3-3.18,4.46,4.46,0,0,0-1.3-3.17,4.21,4.21,0,0,0-3.13-1.33,4.14,4.14,0,0,0-3.12,1.33A4.41,4.41,0,0,0,674.35,1005Z" transform="translate(0 0)"/><path class="cls-3" d="M690.35,1000.12h.06a4.46,4.46,0,0,1,1.48-1.45,3.67,3.67,0,0,1,1.94-.57,4.13,4.13,0,0,1,3.74,2.3,4.58,4.58,0,0,1,4-2.3c2.86,0,4.28,1.86,4.28,5.58v7.74h-2.49v-7.32c0-.33,0-.66,0-1a5.76,5.76,0,0,0-.15-.94,2.94,2.94,0,0,0-.33-.84,2.5,2.5,0,0,0-.61-.7,2.26,2.26,0,0,0-1.27-.33,2.55,2.55,0,0,0-1.33.33,2.38,2.38,0,0,0-.81.76,4.24,4.24,0,0,0-.46,1.15,10,10,0,0,0-.21,1.24c0,.37,0,.8,0,1.27v6.36h-2.48v-6.85c0-.44,0-.81,0-1.1a10.54,10.54,0,0,0-.16-1.11,3,3,0,0,0-.37-1.05,2.1,2.1,0,0,0-1.82-1,2.34,2.34,0,0,0-2.46,1.66,7.14,7.14,0,0,0-.33,1.47,12.7,12.7,0,0,0-.09,1.62v6.36h-2.48V998.49h2.48Z" transform="translate(0 0)"/><rect class="cls-3" x="260.19" y="1002.11" width="35.21" height="1.72"/><rect class="cls-3" x="728.61" y="1002.11" width="35.2" height="1.72"/><path class="cls-4" d="M428,638.15c-36,11.46-66.69,16.27-92.73,16.27-68.46,0-105.12-33.26-124.65-66.51-11.3-19.22-18.32-41.07-22-63.24-10-60,4.2-122.16,23.44-140.25a50.15,50.15,0,0,1,36.78-13.8c37.5,1.2,74.56,39.67,78.64,44.06a17.68,17.68,0,0,1-25.82,24.17c-.33-.36-13.36-14.05-29.47-23.84-16.57-10-28.63-11.67-35.88-4.85-4.21,4-13.27,26.9-15.15,61.68C220,493.61,221,534.91,240.52,569q.36.64.75,1.29c27.65,46.71,80.58,60,157.53,39.56,6-1.57,12.16-3.38,18.47-5.39a17.77,17.77,0,0,1,7.92-.65,17.59,17.59,0,0,1,13.42,10,13.68,13.68,0,0,1,.89,2.2A17.71,17.71,0,0,1,428,638.15Z" transform="translate(0 0)"/><path class="cls-5" d="M428,638.15c-36,11.46-66.69,16.27-92.73,16.27-68.46,0-105.12-33.26-124.65-66.51-11.3-19.22-18.32-41.07-22-63.24,15,38.93,54.13,113.38,133.81,116.27,56.5,2.07,73.26-14.68,76.38-31.12,2.87-15-5.64-29.79-5.64-29.79l32,23.75,13.42,10a13.68,13.68,0,0,1,.89,2.2A17.71,17.71,0,0,1,428,638.15Z" transform="translate(0 0)"/><path class="cls-5" d="M326.65,439.67a17.68,17.68,0,0,1-25-.82c-.33-.36-13.36-14.05-29.47-23.84-16.57-10-28.63-11.67-35.88-4.85-4.21,4-13.27,26.9-15.15,61.68C220,493.61,221,534.91,240.52,569l-2.59-.73s-39.22-30.75-28.45-123.46,59.89-69.11,120.8-25.88l.2.14A17.7,17.7,0,0,1,326.65,439.67Z" transform="translate(0 0)"/><path class="cls-6" d="M741.22,437.55c-8.92,38.32-28,85.22-67.07,132.65-92.35,112-74.67,198.47-74.67,198.47h-.19a2.8,2.8,0,0,1,.19,1c0,8.13-36.43,14.74-81.37,14.74-8.27,0-16.25-.22-23.75-.65-33.35-1.83-57.6-7.45-57.6-14.09a4.16,4.16,0,0,1,1.71-3c1.95-13.6,9.12-94.41-75-196.42-34.6-42-53.49-83.51-63.55-119.07A279.15,279.15,0,0,1,289,377.66c-.18-17.94,1.73-28.52,1.73-28.52l18.41.61,209.64,6.88,228-7.49a148.09,148.09,0,0,1,1.65,19.75A270.36,270.36,0,0,1,741.22,437.55Z" transform="translate(0 0)"/><path class="cls-7" d="M494.36,783.74c-33.35-1.83-57.6-7.45-57.6-14.09a4.16,4.16,0,0,1,1.71-3c1.95-13.6,9.12-94.41-75-196.42-34.6-42-53.49-83.51-63.55-119.07A279.15,279.15,0,0,1,289,377.66c-.18-17.94,1.73-28.52,1.73-28.52l18.41.61,6.4,21.23s-21.51,86.53,83,210.68C472.61,669.47,490.33,746.3,494.36,783.74Z" transform="translate(0 0)"/><ellipse class="cls-7" cx="517.94" cy="349.14" rx="228.92" ry="50.76"/><path class="cls-4" d="M725.24,346.2c0,4.85-5.21,9.49-14.66,13.73-30.69,13.84-106.26,23.6-194.61,23.6-92.39,0-170.79-10.69-198.54-25.52-6.95-3.7-10.73-7.69-10.73-11.81,0-20.62,93.69-37.34,209.27-37.34S725.24,325.58,725.24,346.2Z" transform="translate(0 0)"/><path class="cls-8" d="M710.58,359.93c-30.69,13.84-106.26,23.6-194.61,23.6-92.39,0-170.79-10.69-198.54-25.52,30.69-13.84,106.27-23.6,194.61-23.6C604.44,334.41,682.84,345.1,710.58,359.93Z" transform="translate(0 0)"/><path class="cls-9" d="M477.66,340.3c90.16,0,167,12.64,196.37,30.36,15.34-3.16,27.79-6.78,36.55-10.73C682.84,345.1,604.44,334.41,512,334.41c-81.48,0-152.07,8.31-186.63,20.45C363.56,345.9,417.65,340.3,477.66,340.3Z" transform="translate(0 0)"/><path class="cls-4" d="M741.22,437.55l-36.39,48.51-33.59-37.53L631.67,500l-36.8-42.93-38,39.89-39.61-37.63-43,42.95-34.71-42.85L400.37,490.8l-31.3-38.26-28.25,42.39L337,500.6l-37.1-49.47A279.15,279.15,0,0,1,289,377.66l26,34.66,20.3,27.06,30.83-46.26,39.44,48.2L445,409.82l32.11,39.68,39.55-39.58,39,37,40.61-42.64,33.94,39.59,39-50.71,33.23,37.14,46-61.35s.06-.06.08-.1A270.36,270.36,0,0,1,741.22,437.55Z" transform="translate(0 0)"/><path class="cls-5" d="M340.82,494.93,337,500.6l-37.1-49.47A279.15,279.15,0,0,1,289,377.66l26,34.66C317.55,433.24,324.37,461.36,340.82,494.93Z" transform="translate(0 0)"/><path class="cls-8" d="M710.58,359.93c-30.69,13.84-106.26,23.6-194.61,23.6-92.39,0-170.79-10.69-198.54-25.52,30.69-13.84,106.27-23.6,194.61-23.6C604.44,334.41,682.84,345.1,710.58,359.93Z" transform="translate(0 0)"/><g class="cls-10"><path class="cls-11" d="M796.4,323.56c0-.18,0-.36,0-.54h0c-1-50.63-39.28-92.16-87.7-93.86-36.65-1.27-68.93,20.59-84.27,53.16-.41.87-.82,1.76-1.21,2.65a99.7,99.7,0,0,0-8,33.46h-.11a100.21,100.21,0,0,0,6.25,34.82c.34.91.7,1.83,1.06,2.72,13.57,33.44,44.62,57.21,81.28,58.14,48.43,1.21,88.87-37.95,92.6-88.44h.18C796.44,325,796.41,324.27,796.4,323.56Z" transform="translate(0 0)"/><path class="cls-12" d="M794.3,314.48c-2.48,51.77-43.51,92.33-92.79,91.09-36.66-.93-67.71-24.7-81.28-58.14-.36-.89-.72-1.8-1.06-2.72a100.16,100.16,0,0,1-6.25-34.82l156.34,4Z" transform="translate(0 0)"/><path class="cls-13" d="M794.3,314.48c-2.48,51.77-43.51,92.33-92.79,91.09-36.66-.93-67.71-24.7-81.28-58.14A94.47,94.47,0,0,0,634,357c2.23,1.28,4.52,2.45,6.85,3.55,2.52,1.19,5.09,2.26,7.72,3.23A100.62,100.62,0,0,0,697.53,369c2.87-.41,5.71-.94,8.5-1.6a93.75,93.75,0,0,0,34.31-15.75c2.25-1.68,4.44-3.44,6.51-5.29a83.05,83.05,0,0,0,21.66-30.57c.26-.64.5-1.28.75-1.91Z" transform="translate(0 0)"/><path class="cls-14" d="M783.17,314.2c-2.17,45.42-38.17,81-81.41,79.91-25.84-.66-48.52-14.26-62.6-34.81A87.15,87.15,0,0,1,624,310.18Z" transform="translate(0 0)"/><path class="cls-15" d="M783.17,314.2c-2.17,45.42-38.17,81-81.41,79.91-25.84-.66-48.52-14.26-62.6-34.81,2.1,1.13,4.26,2.16,6.46,3.11,2.37,1,4.78,1.95,7.25,2.76a93.39,93.39,0,0,0,45.54,3.33q4-.69,7.84-1.73a87.64,87.64,0,0,0,31.43-15.64c2.05-1.62,4-3.32,5.9-5.11a77,77,0,0,0,19.3-29c.41-1.09.79-2.18,1.14-3.29Z" transform="translate(0 0)"/><path class="cls-8" d="M779.86,314.12c-.06,1.26-.14,2.51-.26,3.75a82.68,82.68,0,0,1-19.12,46,78.82,78.82,0,0,1-6.23,6.55,73.83,73.83,0,0,1-48,20.25c-1.47.05-2.94.06-4.43,0s-3-.13-4.42-.25a74.24,74.24,0,0,1-47-22.65q-2.5-2.58-4.77-5.4c-.39-.48-.78-1-1.15-1.46a83.07,83.07,0,0,1-17-46.93c-.06-1.24-.09-2.49-.1-3.75Z" transform="translate(0 0)"/><path class="cls-9" d="M779.86,314.12c-.06,1.26-.14,2.51-.26,3.75a82.68,82.68,0,0,1-19.12,46,78.82,78.82,0,0,1-6.23,6.55,73.83,73.83,0,0,1-48,20.25c-1.47.05-2.94.06-4.43,0s-3-.13-4.42-.25a74.24,74.24,0,0,1-47-22.65q-2.5-2.58-4.77-5.4c2.37,1,4.78,1.95,7.25,2.76a93.39,93.39,0,0,0,45.54,3.33q4-.69,7.84-1.73a87.64,87.64,0,0,0,31.43-15.64c2.05-1.62,4-3.32,5.9-5.11a77,77,0,0,0,19.3-29c.41-1.09.79-2.18,1.14-3.29Z" transform="translate(0 0)"/><path class="cls-14" d="M693,311.92a11.13,11.13,0,0,0,21.27.54Z" transform="translate(0 0)"/><path class="cls-14" d="M706.26,390.68c-1.47.05-2.94.06-4.43,0s-3-.13-4.42-.25l1-22,2.4-52.56,5.42.14,0,50.69Z" transform="translate(0 0)"/><path class="cls-14" d="M699.09,312.08l0,1.91-71.61,0c-.06-1.24-.09-2.49-.1-3.75Z" transform="translate(0 0)"/><path class="cls-14" d="M779.86,314.12c-.06,1.26-.14,2.51-.26,3.75L762.88,317l-49.12-2.51-.51,0-3.58-.19-1.6-.07,0-1.91Z" transform="translate(0 0)"/><path class="cls-14" d="M699.29,316l-46.42,49.14-2.48,2.64c-.49-.51-1-1-1.46-1.55l-.44-.48-.86-1c-.2-.22-.4-.46-.59-.69s-.48-.56-.7-.84-.48-.58-.72-.87c-.39-.48-.78-1-1.15-1.46l48.89-47,2.08-2,.11-.11Z" transform="translate(0 0)"/><path class="cls-14" d="M760.48,363.88a78.82,78.82,0,0,1-6.23,6.55l-16.57-19.3-29.94-34.89,3.92-3.95.1.11,2,2.1L743.58,346Z" transform="translate(0 0)"/><path class="cls-15" d="M645.62,362.41c2.37,1,4.78,1.95,7.25,2.76l-2.48,2.64c-.49-.51-1-1-1.46-1.55l-.44-.48-.86-1c-.2-.22-.4-.46-.59-.69s-.48-.56-.7-.84S645.86,362.7,645.62,362.41Z" transform="translate(0 0)"/><path class="cls-15" d="M706.26,390.68c-1.47.05-2.94.06-4.43,0s-3-.13-4.42-.25l1-22q4-.69,7.84-1.73Z" transform="translate(0 0)"/><path class="cls-15" d="M760.48,363.88a78.82,78.82,0,0,1-6.23,6.55l-16.57-19.3c2.05-1.62,4-3.32,5.9-5.11Z" transform="translate(0 0)"/><path class="cls-16" d="M677.43,365.45c-2.42,5.4-5.7,9.12-7.32,8.31s-1-5.85,1.46-11.25,9.08-12.22,9.08-12.22S679.86,360.05,677.43,365.45Z" transform="translate(0 0)"/><path class="cls-17" d="M724.46,357.85c2.51,5.36,3.24,10.38,1.64,11.23s-4.94-2.83-7.45-8.18-3.45-15.11-3.45-15.11S722,352.49,724.46,357.85Z" transform="translate(0 0)"/><path class="cls-17" d="M746,325.88c4.14,2.68,6.85,6,6,7.37s-4.82.34-9-2.34-9-9.31-9-9.31S741.82,323.2,746,325.88Z" transform="translate(0 0)"/><path class="cls-16" d="M694.12,351.08c-1.45,4.35-3.83,7.43-5.31,6.87s-1.49-4.53,0-8.88,6.36-10,6.36-10S695.58,346.73,694.12,351.08Z" transform="translate(0 0)"/><path class="cls-16" d="M649.62,340.36c-3.91,2-7.65,2.48-8.34,1s1.92-4.35,5.83-6.39,11.18-2.48,11.18-2.48S653.53,338.32,649.62,340.36Z" transform="translate(0 0)"/><path class="cls-12" d="M794.29,317.14c.32-51.83-38.48-94.79-87.74-96.52-36.65-1.27-68.93,20.59-84.27,53.16-.41.87-.82,1.76-1.21,2.65A99.94,99.94,0,0,0,613,310.82l156.3,5.45Z" transform="translate(0 0)"/><path class="cls-13" d="M794.29,317.14c.32-51.83-38.48-94.79-87.74-96.52-36.65-1.27-68.93,20.59-84.27,53.16a94.65,94.65,0,0,1,14.3-8.76c2.3-1.14,4.65-2.17,7-3.13,2.57-1,5.19-1.95,7.87-2.77a100.65,100.65,0,0,1,49.12-2.19q4.27.85,8.4,2.1a94.6,94.6,0,0,1,33.41,17.79c2.15,1.81,4.24,3.7,6.21,5.67a83.77,83.77,0,0,1,20,31.83c.23.65.43,1.3.64,1.95Z" transform="translate(0 0)"/><path class="cls-14" d="M783.17,316.75c.28-45.47-33.76-83.16-77-84.67-25.83-.9-49.2,11.32-64.36,31a86.54,86.54,0,0,0-17.74,48.13Z" transform="translate(0 0)"/><path class="cls-15" d="M783.17,316.75c.28-45.47-33.76-83.16-77-84.67-25.83-.9-49.2,11.32-64.36,31,2.16-1,4.37-1.9,6.62-2.72q3.62-1.32,7.38-2.32a93.51,93.51,0,0,1,45.65-.58c2.63.61,5.2,1.35,7.73,2.2a88.2,88.2,0,0,1,30.54,17.5c2,1.74,3.84,3.56,5.61,5.45a77.71,77.71,0,0,1,17.71,30.13c.36,1.11.67,2.23,1,3.36Z" transform="translate(0 0)"/><path class="cls-8" d="M779.86,316.64c0-1.26,0-2.51-.06-3.76a83.17,83.17,0,0,0-16.62-47.09,81,81,0,0,0-5.86-6.91,74.41,74.41,0,0,0-46.83-23.11c-1.46-.14-2.93-.24-4.42-.29s-3,0-4.42,0a73.68,73.68,0,0,0-48.16,19.8c-1.76,1.61-3.45,3.31-5,5.09-.42.46-.83.92-1.24,1.4a82.48,82.48,0,0,0-19.52,45.82c-.13,1.24-.22,2.49-.29,3.74Z" transform="translate(0 0)"/><path class="cls-9" d="M779.86,316.64c0-1.26,0-2.51-.06-3.76a83.17,83.17,0,0,0-16.62-47.09,81,81,0,0,0-5.86-6.91,74.41,74.41,0,0,0-46.83-23.11c-1.46-.14-2.93-.24-4.42-.29s-3,0-4.42,0a73.68,73.68,0,0,0-48.16,19.8c-1.76,1.61-3.45,3.31-5,5.09q3.62-1.32,7.38-2.32a93.51,93.51,0,0,1,45.65-.58c2.63.61,5.2,1.35,7.73,2.2a88.2,88.2,0,0,1,30.54,17.5c2,1.74,3.84,3.56,5.61,5.45a77.71,77.71,0,0,1,17.71,30.13c.36,1.11.67,2.23,1,3.36Z" transform="translate(0 0)"/><path class="cls-14" d="M693,313.61a11.14,11.14,0,0,1,21.27.74Z" transform="translate(0 0)"/><path class="cls-14" d="M710.49,235.77c-1.46-.14-2.93-.24-4.42-.29s-3,0-4.42,0l-.18,22L701,310.06l5.41.19,2.75-50.6Z" transform="translate(0 0)"/><path class="cls-14" d="M699.11,313.82l.06-1.91-71.49-4.34c-.13,1.24-.22,2.49-.29,3.74Z" transform="translate(0 0)"/><path class="cls-14" d="M779.86,316.64c0-1.26,0-2.51-.06-3.76l-16.74-.15-49.17-.45h-.51l-3.58,0-1.6,0-.06,1.91Z" transform="translate(0 0)"/><path class="cls-14" d="M699.52,309.89,655.82,258l-2.33-2.77c-.53.47-1,1-1.55,1.45l-.46.45-.91.92c-.22.21-.42.43-.63.65s-.51.53-.74.8-.51.55-.76.82c-.42.46-.83.92-1.24,1.4l46.29,49.82,2,2.12.1.11Z" transform="translate(0 0)"/><path class="cls-14" d="M763.18,265.79a81,81,0,0,0-5.86-6.91l-17.58,18.27-31.77,33,3.7,4.18.11-.1,2.11-2,31.46-29.68Z" transform="translate(0 0)"/><path class="cls-15" d="M648.44,260.35q3.62-1.32,7.38-2.32l-2.33-2.77c-.53.47-1,1-1.55,1.45l-.46.45-.91.92c-.22.21-.42.43-.63.65s-.51.53-.74.8S648.69,260.08,648.44,260.35Z" transform="translate(0 0)"/><path class="cls-15" d="M710.49,235.77c-1.46-.14-2.93-.24-4.42-.29s-3,0-4.42,0l-.18,22c2.63.61,5.2,1.35,7.73,2.2Z" transform="translate(0 0)"/><path class="cls-15" d="M763.18,265.79a81,81,0,0,0-5.86-6.91l-17.58,18.27c2,1.74,3.84,3.56,5.61,5.45Z" transform="translate(0 0)"/><path class="cls-16" d="M658.36,299c-6-1.29-11.1-.79-11.46,1.1s4.17,4.47,10.14,5.75,15.78-.17,15.78-.17S664.32,300.28,658.36,299Z" transform="translate(0 0)"/><path class="cls-17" d="M726.9,269.65c2.8-5.2,3.8-10.18,2.24-11.11s-5.09,2.52-7.88,7.72S717,281.13,717,281.13,724.11,274.84,726.9,269.65Z" transform="translate(0 0)"/><path class="cls-17" d="M746.65,302.86c4.28-2.43,7.16-5.56,6.43-7s-4.78-.63-9.07,1.8-9.53,8.76-9.53,8.76S742.37,305.29,746.65,302.86Z" transform="translate(0 0)"/><path class="cls-16" d="M696.25,274.58c-1.22-4.43-3.43-7.64-4.93-7.18s-1.74,4.43-.52,8.86,5.82,10.39,5.82,10.39S697.47,279,696.25,274.58Z" transform="translate(0 0)"/><path class="cls-16" d="M651.24,282.61c-3.8-2.27-7.5-2.94-8.27-1.5s1.68,4.46,5.48,6.73,11,3.14,11,3.14S655,284.89,651.24,282.61Z" transform="translate(0 0)"/></g><path class="cls-7" d="M656.07,754.47s43.81,53.24,105.44,41.87c14.57-2.68,30.14-9,46.37-20.46C807.88,775.88,735.23,687.19,656.07,754.47Z" transform="translate(0 0)"/><path class="cls-18" d="M656.08,754.47l109.23,15.4,42.57,6a154.1,154.1,0,0,0-44-34.84C735.58,726.49,696.7,720,656.08,754.47Z" transform="translate(0 0)"/><path class="cls-4" d="M765.32,769.88l-68.43-3.72s21.45,24.07,64.62,30.18c-61.63,11.37-105.44-41.87-105.44-41.87l.54.07Z" transform="translate(0 0)"/><path class="cls-6" d="M656.08,754.47l109.23,15.4-.41-.08-67.18-15.15s17.1-20,66.11-13.6C735.58,726.49,696.7,720,656.08,754.47Z" transform="translate(0 0)"/><path class="cls-7" d="M648,746s-30.32-45-7.92-88.88c5.29-10.39,13.53-20.71,25.82-30.37C665.93,626.77,716.5,701.43,648,746Z" transform="translate(0 0)"/><path class="cls-18" d="M648,746l12.89-85.8,5-33.45a121.31,121.31,0,0,1,16.38,41C687,692.35,683.16,723.13,648,746Z" transform="translate(0 0)"/><path class="cls-4" d="M660.91,660.2l-12.54,52.42s-13.34-21.57-8.26-55.48C617.71,701.05,648,746,648,746l.07-.42Z" transform="translate(0 0)"/><path class="cls-6" d="M648,746l12.89-85.8,0,.33-3.65,54s19-8.39,25.08-46.79C687,692.35,683.16,723.13,648,746Z" transform="translate(0 0)"/><path class="cls-7" d="M684.33,723s1.48-54.21,45.23-76.93c10.34-5.37,23.05-9,38.67-9.69C768.23,636.33,766,726.48,684.33,723Z" transform="translate(0 0)"/><path class="cls-18" d="M684.34,723l60.36-62.33,23.53-24.29a121.21,121.21,0,0,1-10.51,42.9C747.21,701.91,726.23,724.75,684.34,723Z" transform="translate(0 0)"/><path class="cls-4" d="M744.71,660.61,704,696s1.69-25.3,25.54-50C685.81,668.74,684.33,723,684.33,723l.3-.31Z" transform="translate(0 0)"/><path class="cls-6" d="M684.34,723l60.36-62.33-.21.25-34.38,41.86s20.29,4.18,47.61-23.5C747.21,701.91,726.23,724.75,684.34,723Z" transform="translate(0 0)"/></svg>